<?xml version="1.0" encoding="utf-8"?>
<!-- Generator: Adobe Illustrator 24.0.1, SVG Export Plug-In . SVG Version: 6.00 Build 0)  -->
<svg version="1.1" id="Layer_1" xmlns="http://www.w3.org/2000/svg" xmlns:xlink="http://www.w3.org/1999/xlink" x="0px" y="0px"
	 viewBox="0 0 384.8 100.6" style="enable-background:new 0 0 384.8 100.6;" xml:space="preserve">
<style type="text/css">
	.st0{fill:#FFFFFF;}
</style>
<polygon class="st0" points="90.7,99.8 89.9,99.1 0.8,99.1 0.8,100.6 89.9,100.6 90.7,99.8 89.9,100.6 90.7,100.6 "/>
<polygon class="st0" points="89.9,0 89.1,0.8 89.1,99.8 90.7,99.8 90.7,0.8 89.9,0 90.7,0.8 90.7,0 "/>
<polygon class="st0" points="0,0.8 0.8,1.6 89.9,1.6 89.9,0 0.8,0 0,0.8 0.8,0 0,0 "/>
<polygon class="st0" points="0.8,100.6 1.6,99.8 1.6,0.8 0,0.8 0,99.8 0.8,100.6 0,99.8 0,100.6 "/>
<polygon class="st0" points="90.7,99.8 89.9,99.1 0.8,99.1 0.8,100.6 89.9,100.6 90.7,99.8 89.9,100.6 90.7,100.6 "/>
<polygon class="st0" points="89.9,0 89.1,0.8 89.1,99.8 90.7,99.8 90.7,0.8 89.9,0 90.7,0.8 90.7,0 "/>
<polygon class="st0" points="0,0.8 0.8,1.6 89.9,1.6 89.9,0 0.8,0 0,0.8 0.8,0 0,0 "/>
<polygon class="st0" points="0.8,100.6 1.6,99.8 1.6,0.8 0,0.8 0,99.8 0.8,100.6 0,99.8 0,100.6 "/>
<path class="st0" d="M205.7,41.3l0.5,5.9h-1.5c-0.9-2-2.1-3.5-3.5-4.5c-1.4-0.9-3-1.4-5-1.4c-2.9,0-5.4,1-7.3,3.2
	c-1.9,2.2-2.9,4.9-2.9,8.2c0,3.3,1,6.1,3,8.3c2,2.3,4.5,3.4,7.5,3.4c0.4,0,0.8-0.1,1.1-0.1c0.4-0.1,0.7-0.1,1.1-0.2
	c0.7-0.1,1.3-0.3,1.9-0.6c0.7-0.3,1.3-0.6,2-0.9v-4.5c0-1.5-0.3-2.6-0.8-3.2c-0.5-0.7-1.4-0.9-2.7-0.9h-1v-1.4h11.7v1.4h-0.1
	c-1.2,0-1.9,0.3-2.4,1c-0.5,0.7-0.8,1.7-0.8,3.2V64l-0.5,0.2c-2,0.6-3.8,1-5.3,1.3c-1.5,0.2-3,0.3-4.4,0.3c-4.5,0-8.1-1.2-10.9-3.5
	c-2.8-2.3-4.2-5.3-4.2-9.1c0-3.8,1.5-7,4.5-9.6c3-2.6,6.6-3.9,11-3.9c0.4,0,0.8,0.1,1.2,0.1c0.3,0,0.7,0.1,1.1,0.1
	c1,0.1,2,0.3,3,0.6C203.2,40.6,204.4,40.9,205.7,41.3 M154.8,63.9h0.4c1.3,0.1,2.2-0.3,2.7-0.9c0.5-0.7,0.8-1.8,0.8-3.3V45.9
	c0-1.5-0.3-2.6-0.8-3.3c-0.5-0.6-1.4-0.9-2.7-0.9l-0.4-0.1v-1.3H176v5.5h-1.3c-0.4-0.9-0.8-1.6-1.2-2.2c-0.5-0.6-1-1-1.6-1.3
	c-0.5-0.2-1.1-0.3-1.7-0.4c-0.6-0.1-1.5-0.1-2.7-0.1h-4.9v9.6h4.9c1.8,0,3-0.2,3.7-0.7c0.7-0.6,1.2-1.4,1.3-2.7l1.4-0.1v8.9h-1.4
	c-0.2-1.4-0.7-2.3-1.4-2.9c-0.7-0.6-1.9-0.8-3.5-0.8h-5v6c0,1.3,0.2,2.2,0.4,2.8c0.3,0.6,0.7,1.1,1.4,1.4c0.4,0.2,0.8,0.3,1.3,0.4
	c0.6,0.1,1.2,0.1,2.1,0.1c1.2,0,2.2-0.1,2.9-0.2c0.8-0.1,1.5-0.3,2.1-0.7c0.7-0.3,1.2-0.7,1.7-1.2c0.4-0.4,0.9-1,1.3-1.7
	c0.1-0.1,0.2-0.3,0.2-0.4c0.1-0.1,0.2-0.3,0.3-0.4h1.6l-1.6,6.1h-21.5V63.9z M223.2,40.3v3.5l-0.1-0.2l-4,9.9h4.1v2h-4.8l-1.3,3.4
	c-0.1,0.2-0.1,0.3-0.1,0.4c-0.1,0.1-0.1,0.2-0.1,0.3c-0.1,0.2-0.1,0.4-0.1,0.6c-0.1,0.2-0.1,0.4-0.1,0.6c0,0.9,0.3,1.6,0.8,2.1
	c0.6,0.5,1.3,0.8,2.3,0.9v1.3h-8.4v-1.4h0.2h0.2c0.2-0.1,0.4-0.1,0.5-0.2c0.2-0.1,0.3-0.2,0.4-0.3c0,0,0.1-0.1,0.1-0.1
	c0.1-0.1,0.1-0.1,0.2-0.2c0.1,0,0.1-0.1,0.1-0.1c0.1-0.1,0.1-0.1,0.2-0.2c0.1-0.1,0.2-0.2,0.2-0.2c0.1-0.1,0.2-0.2,0.3-0.3
	c0.2-0.3,0.4-0.7,0.6-1.2c0.2-0.5,0.5-1.2,0.9-2.3l7-17.5l-0.6-1.2L223.2,40.3L223.2,40.3z M120.5,34.9c0.1,0.7,0.1,1.3,0.2,1.9
	c0.1,0.6,0.2,1.2,0.4,1.7c0.1,0.5,0.3,0.9,0.4,1.5c0.2,0.5,0.3,1,0.6,1.6v0.1c0,0.1,0.1,0.1,0.1,0.1c0.1,0.1,0.1,0.3,0.2,0.4
	c0.1,0.2,0.1,0.3,0.2,0.4c0.3,0.8,0.7,1.6,1.1,2.5c0.4,0.8,1,2,1.7,3.4c0.6,1.3,1.2,2.3,1.6,3.1c0.4,0.8,0.8,1.7,1.1,2.4
	c0.1,0.1,0.1,0.1,0.1,0.2c0,0.1,0,0.1,0.1,0.2c0.1,0.3,0.2,0.6,0.4,0.8c0.1,0.3,0.2,0.6,0.4,0.8c0.2,0.4,0.3,0.7,0.4,0.9
	c0.1,0.2,0.2,0.5,0.3,0.7c0,0.1,0.1,0.1,0.1,0.1v0.1c0.1,0.2,0.1,0.3,0.2,0.5c0.1,0.2,0.1,0.3,0.2,0.6c0.1-0.2,0.2-0.4,0.2-0.6
	c0.1-0.1,0.1-0.3,0.2-0.4v-0.1c0.1-0.1,0.1-0.1,0.1-0.1c0.1-0.3,0.3-0.7,0.5-1.1c0.2-0.3,0.4-0.8,0.8-1.5c0.2-0.3,0.3-0.6,0.4-0.8
	c0.2-0.3,0.3-0.6,0.4-0.8c0.1,0,0.1-0.2,0.1-0.3c0.1-0.1,0.1-0.2,0.2-0.3c0.4-0.7,0.8-1.5,1.2-2.3c0.4-0.8,0.8-1.7,1.3-2.7
	c0.3-0.8,0.7-1.5,0.9-2.2c0.3-0.6,0.6-1.2,0.8-1.7c0.8-1.8,1.3-3.2,1.6-4.4c0.3-1.2,0.5-2.2,0.5-3.2v-0.4v-0.3
	c-0.1-0.1-0.1-0.2-0.1-0.4c-0.1-0.2-0.1-0.3-0.1-0.6h9.1v1.7H148c-0.9,0.1-1.8,0.3-2.4,0.9c-0.7,0.6-0.9,1.3-0.9,2.2
	c0,0.3,0,0.6,0.1,0.9c0.1,0.4,0.1,0.7,0.1,1.2l2.3,16.8c0.2,1.8,0.7,3.2,1.4,4c0.7,0.8,1.8,1.2,3.1,1.2h0.2v1.7h-13.5v-1.7h0.1
	c1.2,0,2.2-0.3,2.8-1c0.7-0.7,1-1.5,1-2.7c0-0.2-0.1-0.4-0.1-0.7c0-0.2-0.1-0.5-0.1-0.7l-2.2-16.9H140c-0.1,0.3-0.2,0.6-0.3,0.8
	c-0.1,0.2-0.1,0.4-0.2,0.7c-0.1,0.1-0.1,0.2-0.1,0.3c-0.1,0.1-0.1,0.2-0.1,0.2c-0.1,0.2-0.2,0.4-0.3,0.7c-0.1,0.2-0.2,0.5-0.3,0.8
	c-0.2,0.5-0.5,1.2-0.8,1.9c-0.4,0.8-0.8,1.7-1.3,2.8c-0.6,1.2-1.1,2.3-1.5,3.2c-0.4,0.9-0.8,1.6-1.1,2.2c-0.6,1.2-1.1,2.1-1.4,2.8
	c-0.4,0.7-0.6,1.1-0.7,1.3c-0.2,0.4-0.3,0.8-0.5,1.2c-0.2,0.4-0.4,0.9-0.6,1.4c-0.2,0.4-0.3,0.8-0.4,1.1c-0.1,0.3-0.2,0.6-0.3,0.9
	V64c0,0-0.1,0.1-0.1,0.1c-0.1,0.2-0.1,0.4-0.2,0.6c-0.1,0.2-0.2,0.4-0.2,0.6h-2.1c0-0.1-0.1-0.2-0.1-0.3c0-0.1,0-0.3-0.1-0.4
	c-0.1-0.4-0.2-0.9-0.4-1.4c-0.2-0.5-0.5-1.3-0.9-2.2c-0.4-0.9-0.7-1.6-0.9-2.2c-0.3-0.6-0.5-1.1-0.7-1.5c-0.1-0.2-0.3-0.7-0.7-1.4
	c-0.4-0.8-0.9-1.8-1.6-3.1c-0.1-0.1-0.2-0.3-0.2-0.4c-0.1-0.1-0.2-0.3-0.2-0.4c-1.1-2.1-2-4.1-2.9-6c-0.8-1.9-1.4-3.5-1.8-4.8
	l-0.1-0.1l-2.4,15.8c0,0.2-0.1,0.3-0.1,0.4c0,0.2,0,0.3-0.1,0.4c-0.1,0.3-0.1,0.6-0.1,0.9c-0.1,0.3-0.1,0.5-0.1,0.8
	c0,1.4,0.3,2.5,1.1,3.3c0.7,0.8,1.7,1.1,2.9,1.1h0.2v1.7h-10.5v-1.7h0.2c1.2,0,2.2-0.3,2.8-1.1c0.6-0.8,1.1-2,1.3-3.8l0.3-2.1
	l2.2-13.8c0.1-0.7,0.2-1.2,0.2-1.6c0.1-0.4,0.1-0.8,0.1-1.2c0-1.2-0.3-2.1-0.8-2.6c-0.6-0.6-1.4-0.9-2.7-1.1v-1.7L120.5,34.9
	L120.5,34.9z M236.6,63.9c-0.1,0-0.1-0.1-0.2-0.1c-0.3-0.1-0.5-0.3-0.8-0.6c-0.2-0.3-0.4-0.7-0.7-1.1c-0.2-0.4-0.5-1.1-0.8-1.8
	l-8.6-19.9h-2.4v3.5l4,9.7h-4v2h4.9l1.9,4.5c0.1,0.3,0.2,0.5,0.2,0.7c0.1,0.2,0.1,0.4,0.1,0.6v0.1v0.1c0,0.7-0.2,1.3-0.8,1.7
	c-0.5,0.4-1.3,0.7-2.3,0.7v1.4h9.4L236.6,63.9L236.6,63.9z M236.6,40.3v1.7c-0.3-0.2-0.6-0.2-0.9-0.3v-1.4L236.6,40.3L236.6,40.3z
	 M236.6,42.1c0.2,0.1,0.3,0.2,0.4,0.3c0.4,0.3,0.7,0.8,0.9,1.3l0.8,1.8l7.3,16.2c0.1,0.1,0.1,0.1,0.1,0.1c0.1,0.1,0.1,0.1,0.1,0.1
	c0.3,0.8,0.6,1.6,0.9,2.3c0.2,0.7,0.4,1.3,0.4,1.6h1.9c0.1-0.4,0.3-1.1,0.7-1.8c0.3-0.8,0.7-1.7,1.3-2.8l2.8-5.4l3.8,7.9
	c0.1,0.2,0.2,0.3,0.2,0.4c0.1,0.1,0.1,0.3,0.2,0.4c0,0.1,0,0.2,0.1,0.3c0,0.1,0.1,0.2,0.1,0.3c0,0.1,0.1,0.2,0.1,0.3
	c0.1,0.1,0.1,0.2,0.1,0.3h1.7c0.1-0.3,0.2-0.8,0.3-1.3c0.2-0.5,0.4-1.1,0.6-1.6c0-0.1,0.1-0.2,0.1-0.3c0.1-0.1,0.1-0.2,0.1-0.3
	l6.9-15.9l0.7-1.6c0.4-0.9,0.9-1.6,1.4-2.1c0.5-0.5,1.1-0.8,1.7-0.9v-1.4h-7.5v1.4c0.8,0.1,1.4,0.3,1.8,0.8c0.4,0.5,0.6,1.1,0.6,1.9
	c0,0.4-0.1,0.8-0.2,1.3c-0.2,0.5-0.4,1.1-0.7,1.8l-5.6,13c-0.1-0.2-0.2-0.4-0.2-0.6c-0.1-0.2-0.2-0.3-0.2-0.5c0-0.1,0-0.1-0.1-0.1
	c0,0,0-0.1-0.1-0.1c-0.1-0.2-0.1-0.4-0.2-0.6c-0.1-0.2-0.2-0.4-0.3-0.8l-3.2-6.5l3.2-6c0.4-0.7,0.8-1.3,1.1-1.8
	c0.3-0.4,0.5-0.8,0.8-1c0.2-0.3,0.5-0.4,0.7-0.6c0.3-0.1,0.6-0.2,0.9-0.3v-1.4h-6.7v1.4c0.6,0.1,1.1,0.4,1.3,0.7
	c0.3,0.3,0.4,0.8,0.4,1.4v0.3c-0.1,0.1-0.1,0.2-0.1,0.3c-0.1,0.2-0.1,0.4-0.1,0.6c-0.1,0.2-0.2,0.4-0.2,0.5l-2.2,4.2l-2.3-4.5
	c-0.1-0.3-0.2-0.6-0.3-0.8c-0.1-0.3-0.1-0.6-0.1-0.8c0-0.4,0.2-0.9,0.4-1.2c0.3-0.3,0.7-0.6,1.3-0.7v-1.4H246v1.4
	c0.3,0,0.7,0.1,1,0.3c0.3,0.2,0.6,0.4,0.9,0.8c0.2,0.3,0.4,0.6,0.6,0.9c0.2,0.3,0.4,0.8,0.6,1.2l4.1,9l-3.6,7.1l-0.1-0.4l-0.7-1.7
	c-0.1-0.3-0.3-0.7-0.4-1.1c-0.2-0.4-0.4-1-0.7-1.6c-0.3-0.7-0.6-1.4-0.8-1.9c-0.2-0.6-0.4-0.9-0.6-1.3l-3.3-7.1
	c-0.2-0.5-0.4-0.9-0.5-1.2c-0.1-0.3-0.2-0.6-0.2-0.9v-0.1v-0.1c0-0.6,0.2-1,0.5-1.4c0.3-0.4,0.8-0.6,1.4-0.7v-1.4h-7.8L236.6,42.1
	L236.6,42.1z M236.6,65.3v-1.4c0.2,0.1,0.6,0.1,0.9,0.1v1.3L236.6,65.3L236.6,65.3z M286.4,39.9v1.6h-0.7c-1,0-2,0.2-3,0.6
	c-0.9,0.4-1.8,1.1-2.5,1.9c-0.9,0.9-1.5,1.9-1.9,3.2c-0.4,1.2-0.6,2.6-0.6,4.3v0.4v0.4v-0.1c0.2,3.7,1.2,6.6,2.8,8.8
	c1.5,2,3.4,3.2,5.8,3.3v1.5h-0.5c-3.5,0-6.4-1.2-8.8-3.5c-2.4-2.4-3.6-5.3-3.6-8.9v-0.1c0-3.9,1.2-7.1,3.7-9.6
	C279.5,41.2,281.4,40.1,286.4,39.9 M286.4,65.8v-1.5c0.2,0.1,0.3,0.1,0.6,0.1c2.4,0,4.4-0.9,5.8-2.8c1.4-1.8,2.2-4.2,2.2-7.2
	c0-1.7-0.2-3.4-0.7-5c-0.4-1.7-1.1-3.1-1.9-4.4c-0.7-1.1-1.7-1.9-2.9-2.6c-0.9-0.5-2-0.8-3-0.9v-1.6h0.1c3.7,0,6.8,1.3,9.2,3.8
	c2.4,2.4,3.7,5.6,3.7,9.3c0,3.6-1.3,6.6-3.9,9.1C293,64.4,290,65.7,286.4,65.8 M315.9,40.3V42c-0.2,0-0.3-0.1-0.5-0.1
	c-0.5-0.1-1.2-0.1-2.1-0.1l-2.1-0.1V52h2c1.2,0,2,0,2.5-0.1h0.1v3.9c-0.3-0.4-0.6-0.7-0.8-1c-0.4-0.5-0.8-0.9-1.1-1.1
	c-0.1-0.1-0.3-0.2-0.6-0.2c-0.3,0-0.7-0.1-1.1-0.1h-1.1v6.2c0,1.5,0.3,2.7,0.8,3.3c0.5,0.6,1.4,0.9,2.7,0.9l0.4-0.1v1.4h-11.4v-1.4
	h0.3c1.3,0.1,2.2-0.3,2.7-0.9c0.5-0.7,0.8-1.8,0.8-3.3V45.9c0-1.5-0.3-2.6-0.8-3.2c-0.5-0.7-1.4-0.9-2.7-0.9l-0.3-0.1v-1.4h10.8
	C314.5,40.3,315.9,40.3,315.9,40.3z M342.7,40.3v1.4h-0.8c-1.2,0-2,0.3-2.6,1c-0.5,0.6-0.7,1.7-0.7,3.3v12.4c0,1.2,0.1,2.2,0.2,2.7
	c0.2,0.6,0.4,1.1,0.8,1.5c0.4,0.4,0.9,0.8,1.6,1c0.6,0.2,1.4,0.3,2.3,0.3l2.7-0.1c1.3,0.1,2.4-0.1,3.2-0.3c0.8-0.3,1.6-0.7,2.3-1.3
	c0.1-0.1,0.2-0.2,0.3-0.3c0.1-0.1,0.2-0.2,0.3-0.3c0.1-0.1,0.2-0.3,0.3-0.4c0.1-0.1,0.2-0.2,0.3-0.3c0.1-0.1,0.1-0.2,0.2-0.2
	c0.1-0.1,0.1-0.2,0.1-0.2c0.2-0.2,0.3-0.4,0.4-0.6c0.1-0.2,0.3-0.4,0.4-0.7h1.5l-1.5,6.1h-23.3V64h0.7c1.3,0,2.2-0.3,2.7-0.9
	c0.5-0.6,0.7-1.7,0.7-3.3V45.9c0-1.5-0.2-2.6-0.8-3.2c-0.5-0.7-1.4-0.9-2.6-0.9l-0.7-0.1v-1.4C330.5,40.3,342.7,40.3,342.7,40.3z
	 M315.9,55.9v-3.9c0.5-0.1,1-0.1,1.4-0.2c0.1-0.1,0.2-0.1,0.4-0.2c0.1-0.1,0.3-0.1,0.4-0.1c0.8-0.3,1.4-0.9,1.9-1.6
	c0.4-0.7,0.7-1.5,0.7-2.5c0-1.1-0.3-1.9-0.7-2.8c-0.5-0.8-1.2-1.4-2-1.8c-0.2-0.1-0.3-0.2-0.5-0.3c-0.2-0.1-0.4-0.1-0.6-0.2
	c-0.3-0.1-0.6-0.2-0.9-0.2v-1.7c1.1,0.1,2,0.1,2.7,0.2c1,0.1,1.9,0.4,2.7,0.7c1.2,0.4,2.1,1.2,2.8,2.2c0.7,1,1,2.1,1,3.3
	c0,1.1-0.3,2.2-0.9,3.2c-0.6,0.9-1.5,1.7-2.5,2.2c-0.2,0.1-0.4,0.2-0.6,0.2c-0.2,0.1-0.3,0.2-0.5,0.2c-0.1,0.1-0.3,0.1-0.4,0.2
	c-0.2,0-0.3,0.1-0.4,0.1c-0.2,0-0.4,0.1-0.7,0.1c-0.3,0.1-0.6,0.1-0.9,0.2c0.1,0.1,0.2,0.1,0.2,0.1c0.1,0.1,0.1,0.1,0.2,0.1v0.1
	c0.1,0,0.1,0,0.2,0.1c0.1,0.1,0.1,0.2,0.2,0.2c0.2,0.2,0.4,0.5,0.7,0.8c0.3,0.3,0.7,0.8,1.1,1.3l3.3,3.7c0.1,0.2,0.4,0.4,0.7,0.8
	c0.3,0.3,0.8,0.8,1.3,1.3c0.3,0.3,0.6,0.6,0.8,0.8c0.2,0.2,0.4,0.4,0.7,0.7c0.2,0.1,0.3,0.2,0.6,0.3c0.2,0.1,0.4,0.2,0.6,0.3
	c0.1,0.1,0.2,0.1,0.2,0.1c0.1,0.1,0.1,0.1,0.2,0.1c0.1,0,0.2,0,0.2,0.1h0.4v1.3h-2.9c-0.8,0-1.5-0.1-2.2-0.3c-0.6-0.2-1.2-0.5-1.7-1
	c-0.4-0.3-0.8-0.7-1.2-1.2c-0.4-0.5-0.9-1.1-1.6-1.9l-3.2-4C316.5,56.5,316.2,56.1,315.9,55.9 M372.4,40.5v1.9
	c-0.6-0.2-1.2-0.3-1.8-0.4c-0.9-0.1-2.2-0.2-3.8-0.2l-2.2-0.1v16.9v1.8c0.1,0.4,0.1,0.7,0.2,1c0,0.1,0,0.1,0.1,0.1
	c0,0.1,0,0.1,0.1,0.1c0.2,0.7,0.7,1.2,1.3,1.5c0.6,0.4,1.3,0.6,2.2,0.6h1.4c0.9,0,1.6,0,2.2-0.1c0.1,0,0.3,0,0.4-0.1v1.6
	c-0.9,0.1-1.9,0.1-3.3,0.1l-12.5-0.1v-1.4h0.7c1.3,0.1,2.1-0.3,2.6-0.9c0.6-0.7,0.8-1.8,0.8-3.3V45.9c0-1.5-0.2-2.6-0.8-3.2
	c-0.5-0.7-1.3-0.9-2.6-0.9l-0.7-0.1v-1.4h12.8C370.6,40.3,371.6,40.4,372.4,40.5 M372.4,65.3v-1.6c0.4-0.1,0.9-0.1,1.2-0.2
	c2-0.6,3.6-1.7,4.8-3.5c1.2-1.8,1.8-3.9,1.8-6.3c0-1.8-0.3-3.4-0.9-4.9c-0.6-1.4-1.4-2.7-2.6-3.8c-0.5-0.4-1-0.9-1.6-1.2
	c-0.6-0.3-1.2-0.7-1.8-0.9c-0.3-0.2-0.6-0.3-0.9-0.3v-1.9c0.4,0,0.8,0.1,1.1,0.1c1,0.1,1.9,0.3,2.8,0.6h0.1h0.1
	c0.8,0.3,1.5,0.6,2.3,1c0.7,0.4,1.4,0.9,2.1,1.5c1.3,1.2,2.3,2.5,3,4c0.7,1.5,1.1,3.2,1.1,4.9c0,2.9-0.9,5.5-2.7,7.7
	c-1.8,2.3-4.1,3.8-7,4.5H375c-0.1,0.1-0.1,0.1-0.1,0.1c-0.7,0.2-1.6,0.3-2.4,0.4H372.4z"/>
<path class="st0" d="M61,23.7l0.7-2.4h2.1l5.7,20.9l5.2-14.8c1.3-3.2-1.5-4.3-3.9-4v-2.2h13.4v2.2c-2.9,0-6.1,0.8-7.1,3.9L71,47.1
	l7.7,25.8c1.1,4,3.2,4,5.7,4V79H67.8v-2.1c3.7,0,4.2-1.6,3.4-4.3l-4-14.2L61,78.4v-16l1,3.2l3.8-11.9L61,37.4
	C61,37.4,61,23.7,61,23.7z M46,22l0.3-0.7h2.1l6.6,22L61,23.7v13.7l-0.8-2.5l-4.1,12.2L61,62.4v16l-0.2,0.6h-2.1l-6.1-21L46,78.2
	V62.8l1.2,3.5L51.3,54L46,37.1L46,22L46,22z M30.3,22.2l0.3-0.9h1.6l7,21.5L46,22v15.1l-0.8-2.6L40.7,47L46,62.8v15.4L45.7,79h-2.1
	l-6.8-21.6l-6.5,20.1v-14l0.7,2.4l4.4-12.4l-5.1-15.2L30.3,22.2L30.3,22.2z M19.8,52.3l-7.7-25.4c-1.1-3.2-3.5-3.5-5.9-3.4v-2.2h17
	v2.1c-3.4-0.1-4.9,0.9-4,3.6l4.5,14.4l6.6-19.2v16.1l-1-3.2l-4.1,11.3l5.1,17.1v14L29.8,79h-2.1l-6.5-22.2L15,72.3
	c-1.5,3.7,1.5,4.7,4.5,4.7V79H6.3v-2.1c3.2-0.4,4.4-1.2,5.7-3.7L19.8,52.3z"/>
</svg>
