<svg width="375" height="321" viewBox="0 0 375 321" fill="none" xmlns="http://www.w3.org/2000/svg">
<g clip-path="url(#clip0)">
<path opacity="0.1" fill-rule="evenodd" clip-rule="evenodd" d="M-943.952 195.344V71.52H-907.24C-891.673 71.52 -879.839 77.4207 -871.288 89.5105C-862.791 101.523 -858.72 116.137 -858.72 133.864C-858.72 151.302 -862.791 165.922 -871.294 177.651C-879.846 189.446 -891.675 195.344 -907.24 195.344H-943.952ZM-907.24 231.648C-879.547 231.648 -857.955 222.525 -842.334 204.348C-826.677 186.128 -818.672 162.757 -818.672 133.864C-818.672 104.973 -826.676 81.5975 -842.339 63.0859C-857.964 44.6203 -879.557 35.216 -907.24 35.216H-984V231.648H-907.24ZM-907.24 232.648C-879.304 232.648 -857.416 223.432 -841.576 205C-825.736 186.568 -817.672 162.952 -817.672 133.864C-817.672 104.776 -825.736 81.16 -841.576 62.44C-857.416 43.72 -879.304 34.216 -907.24 34.216H-985V232.648H-907.24ZM-662.973 178.504C-662.939 177.954 -662.904 177.412 -662.871 176.878C-662.621 172.937 -662.397 169.417 -662.397 166.12C-662.397 145.096 -669.021 128.104 -682.269 115.144C-695.229 101.896 -711.645 95.272 -731.229 95.272C-751.101 95.272 -767.805 101.608 -781.341 114.568C-794.877 127.528 -801.501 144.232 -801.501 164.968C-801.501 185.704 -794.877 202.696 -781.341 215.944C-767.805 228.904 -751.101 235.528 -731.229 235.528C-703.151 235.528 -682.893 226.59 -670.456 208.989C-670.264 208.718 -670.074 208.444 -669.885 208.168L-698.973 188.296C-705.597 196.648 -715.389 200.968 -728.349 200.968C-743.826 200.968 -758.753 193.545 -761.31 179.504C-761.37 179.174 -761.423 178.841 -761.469 178.504H-662.973ZM-698.779 189.64C-705.614 197.8 -715.52 201.968 -728.349 201.968C-744.384 201.968 -760.341 194.075 -762.46 178.64L-762.616 177.504H-663.912C-663.898 177.272 -663.883 177.042 -663.868 176.813C-663.618 172.868 -663.397 169.383 -663.397 166.12C-663.397 145.326 -669.939 128.605 -682.969 115.859L-682.976 115.851L-682.984 115.843C-695.743 102.801 -711.895 96.272 -731.229 96.272C-750.866 96.272 -767.316 102.524 -780.65 115.29C-793.964 128.038 -800.501 144.469 -800.501 164.968C-800.501 185.467 -793.964 202.188 -780.646 215.225C-767.305 227.997 -750.853 234.528 -731.229 234.528C-703.381 234.528 -683.481 225.68 -671.281 208.425L-698.779 189.64ZM-762.12 154.448L-761.873 153.247C-758.586 137.261 -744.539 129.407 -730.939 129.444C-717.339 129.481 -703.825 137.422 -701.726 153.317L-701.576 154.448H-762.12ZM-760.893 153.448H-702.717C-702.762 153.111 -702.812 152.778 -702.867 152.448C-707.745 123.244 -753.597 122.975 -760.671 152.448C-760.75 152.778 -760.824 153.111 -760.893 153.448ZM-588.174 180.995C-583.386 182.301 -579.894 183.788 -577.596 185.775C-575.232 187.819 -574.189 190.337 -574.189 193.48C-574.189 197.206 -576.23 200.225 -579.392 202.307C-582.536 204.378 -586.833 205.563 -591.574 205.712L-591.59 205.712H-591.605C-597.164 205.712 -602.28 203.76 -606.054 200.741C-609.543 197.95 -611.946 194.192 -612.405 190.16H-647.887C-647.368 203.521 -642.022 214.39 -631.329 222.342C-620.287 230.552 -607.254 234.528 -592.757 234.528C-577.372 234.528 -564.024 230.826 -552.679 223.736L-552.67 223.73C-541.159 216.711 -535.581 206.666 -535.581 193.48C-535.581 189.501 -535.867 185.764 -537.558 181.657C-539.253 177.541 -542.393 172.973 -548.231 167.421C-553.851 162.081 -561.469 157.836 -571.407 155.281L-571.414 155.278L-594.166 149.23L-594.169 149.23C-597.979 148.204 -601.017 146.859 -603.155 145.071C-605.326 143.255 -606.554 140.992 -606.716 138.243L-606.716 138.232C-606.877 134.851 -605.409 132.015 -602.702 130.065C-600.031 128.14 -596.203 127.104 -591.605 127.104C-586.456 127.104 -582.453 128.13 -579.684 130.306C-577.1 132.336 -575.723 135.26 -575.402 138.912H-539.641C-540.143 124.429 -545.491 113.868 -555.589 107.045C-566.057 99.9721 -578.815 96.272 -593.909 96.272C-607.815 96.272 -619.699 100.24 -629.885 107.88C-640.087 115.531 -645.049 123.914 -645.326 133.605L-645.326 133.61C-645.469 137.76 -645.394 140.912 -644.768 144.15C-644.142 147.383 -642.956 150.752 -640.82 155.31C-636.408 163.838 -624.39 171.51 -605.752 176.385L-588.174 180.995ZM-641.717 155.752C-646.037 146.536 -646.613 141.928 -646.326 133.576C-646.037 123.496 -640.853 114.856 -630.486 107.08C-620.117 99.304 -608.021 95.272 -593.909 95.272C-578.645 95.272 -565.685 99.016 -555.029 106.216C-544.608 113.258 -539.144 124.157 -538.64 138.912C-538.629 139.243 -538.62 139.577 -538.613 139.912H-576.341C-576.629 132.136 -581.525 128.104 -591.605 128.104C-600.533 128.104 -606.005 132.136 -605.717 138.184C-605.43 143.08 -601.397 146.248 -593.909 148.264L-571.157 154.312C-561.077 156.904 -553.301 161.224 -547.542 166.696C-535.733 177.928 -534.581 185.416 -534.581 193.48C-534.581 207.016 -540.341 217.384 -552.149 224.584C-563.669 231.784 -577.205 235.528 -592.757 235.528C-607.445 235.528 -620.693 231.496 -631.925 223.144C-642.891 214.99 -648.367 203.817 -648.888 190.16C-648.901 189.828 -648.911 189.495 -648.917 189.16H-611.477C-611.189 197.224 -602.261 204.712 -591.605 204.712C-582.389 204.424 -575.189 200.104 -575.189 193.48C-575.189 187.72 -578.934 184.552 -588.438 181.96L-606.005 177.352C-624.725 172.456 -637.109 164.68 -641.717 155.752ZM-512.176 232.648V98.152H-472.432V232.648H-512.176ZM-473.432 231.648V99.152H-511.176V231.648H-473.432ZM-492.304 26C-505.647 26 -516.36 35.9888 -516.36 48.328C-516.36 60.6826 -505.63 70.944 -492.304 70.944C-479.289 70.944 -468.824 60.7048 -468.824 48.328C-468.824 35.9668 -479.273 26 -492.304 26ZM-352.049 189.315L-352.058 189.322C-358.846 195.52 -366.568 198.8 -375.484 198.8C-393.587 198.8 -408.74 185.122 -408.74 164.968C-408.74 145.943 -393.562 132.288 -375.484 132.288C-357.436 132.288 -341.94 145.05 -341.94 164.968C-341.94 174.727 -345.207 182.77 -352.041 189.307L-352.049 189.315ZM-343.076 113.215C-350.248 102.333 -365.93 95.272 -382.396 95.272C-400.54 95.272 -416.092 101.896 -429.628 115.144C-442.876 128.104 -449.5 145.096 -449.5 165.832C-449.5 186.28 -442.876 202.984 -429.628 215.944C-416.092 228.904 -400.54 235.528 -382.396 235.528C-365.917 235.528 -349.7 228.456 -342.987 217.56C-342.66 217.03 -342.356 216.492 -342.076 215.944C-342.036 216.575 -342.002 217.2 -341.973 217.818C-340.555 248.531 -352.973 263.752 -379.228 263.752C-392.703 263.752 -407.819 254.996 -412.842 243.084C-412.972 242.776 -413.096 242.465 -413.212 242.152L-445.468 257.992C-433.948 283.336 -408.892 299.752 -379.228 299.752C-330.556 299.752 -303.196 270.664 -303.196 213.928V98.152H-342.076V114.856C-342.388 114.3 -342.722 113.753 -343.076 113.215ZM-341.076 99.152V118.683L-342.948 115.345C-349.339 103.954 -365.345 96.272 -382.396 96.272C-400.261 96.272 -415.567 102.781 -428.929 115.859C-441.959 128.606 -448.5 145.328 -448.5 165.832C-448.5 186.039 -441.965 202.473 -428.934 215.224C-415.57 228.018 -400.262 234.528 -382.396 234.528C-373.899 234.528 -365.479 232.615 -358.455 229.262C-351.421 225.904 -345.861 221.14 -342.966 215.488L-341.307 212.249L-341.078 215.881C-340.063 231.973 -342.654 244.216 -349.063 252.45C-355.503 260.725 -365.638 264.752 -379.228 264.752C-386.35 264.752 -393.875 262.383 -400.204 258.445C-406.192 254.72 -411.188 249.541 -413.741 243.526L-444.15 258.459C-432.62 282.938 -408.162 298.752 -379.228 298.752C-355.095 298.752 -336.39 291.547 -323.703 277.447C-311.001 263.33 -304.196 242.15 -304.196 213.928V99.152H-341.076ZM-231.945 98.152H-271.977V232.648H-231.945V161.512C-231.945 143.368 -223.593 134.152 -207.177 134.152C-193.065 134.152 -183.849 143.656 -183.849 160.936V232.648H-143.817V152.296C-143.817 114.568 -161.961 95.272 -193.065 95.272C-208.208 95.272 -223.351 103.432 -230.945 115.976C-231.295 116.554 -231.628 117.14 -231.945 117.736V98.152ZM-144.817 231.648V152.296C-144.817 133.578 -149.319 119.593 -157.527 110.298C-165.717 101.022 -177.727 96.272 -193.065 96.272C-208.567 96.272 -224.05 105.023 -231.062 118.206L-232.945 117.736V99.152H-270.977V231.648H-232.945V161.512C-232.945 152.305 -230.828 145.182 -226.458 140.357C-222.072 135.513 -215.571 133.152 -207.177 133.152C-199.887 133.152 -193.765 135.614 -189.477 140.396C-185.2 145.165 -182.849 152.125 -182.849 160.936V231.648H-144.817ZM21.9268 154.888C40.6467 160.36 46.1188 167.272 45.8307 177.352C45.5427 190.024 34.0227 198.376 16.7428 198.376C-1.40125 198.376 -12.0573 188.008 -12.9213 174.472H-55.2573C-55.2573 174.807 -55.255 175.14 -55.2505 175.472C-55.0107 193.157 -48.389 207.516 -35.3853 218.824C-22.1373 230.056 -4.85724 235.816 16.7428 235.816C41.2228 235.816 63.1107 228.328 77.2228 210.184C84.4227 200.968 87.8788 190.024 88.1667 177.64C89.0308 148.552 70.8867 128.392 33.7347 117.736L10.1188 110.248C-3.99323 106.216 -11.1932 99.592 -11.1932 90.088C-11.1932 78.568 -0.537231 70.216 14.4387 70.216C30.8547 70.216 40.0708 79.144 40.0708 92.68H82.1188C82.1188 92.3454 82.1167 92.012 82.1127 91.68C81.8903 73.4361 75.5562 59.0764 63.1107 48.328C50.7268 37.384 34.5988 31.912 15.0148 31.912C-4.28125 31.912 -20.6973 37.384 -33.6573 48.616C-46.6172 59.56 -53.2413 73.672 -53.2413 91.24C-53.2413 118.6 -36.2493 137.608 -1.97723 148.264L21.9268 154.888ZM-1.69519 147.304C-1.69025 147.306 -1.6853 147.308 -1.68036 147.309L22.1938 153.924L22.2073 153.928C31.6233 156.681 37.8643 159.835 41.7139 163.685C45.6165 167.588 46.9806 172.121 46.8303 177.381C46.6771 184.046 43.5566 189.584 38.2449 193.426C32.9548 197.253 25.5322 199.376 16.7428 199.376C7.48029 199.376 0.0366821 196.727 -5.21692 192.262C-10.2404 187.992 -13.1988 182.112 -13.8439 175.472H-54.2504C-54.0114 192.872 -47.51 206.954 -34.7333 218.066C-21.7026 229.111 -4.66931 234.816 16.7428 234.816C41.0298 234.816 62.572 227.392 76.4333 209.57L76.4347 209.568C83.4827 200.547 86.8832 189.82 87.167 177.617L87.1672 177.61C87.5922 163.302 83.3496 151.248 74.4658 141.448C65.5609 131.624 51.9276 123.994 33.459 118.697L33.4457 118.693L33.4325 118.689L9.84406 111.21C9.83942 111.208 9.83478 111.207 9.83014 111.206C2.70123 109.167 -2.79095 106.446 -6.51392 102.949C-10.2697 99.4207 -12.1932 95.1288 -12.1932 90.088C-12.1932 77.7964 -0.841125 69.216 14.4387 69.216C22.822 69.216 29.4932 71.497 34.0801 75.629C38.4581 79.5729 40.8363 85.1128 41.0543 91.68H81.1127C80.8907 73.6942 74.6583 59.6222 62.4572 49.0848L62.4485 49.0774C50.2815 38.325 34.4045 32.912 15.0148 32.912C-4.08301 32.912 -20.2538 38.3229 -33.0023 49.3717L-33.012 49.3801C-45.7448 60.1321 -52.2413 73.9635 -52.2413 91.24C-52.2413 104.693 -48.0714 116.042 -39.7171 125.348C-31.347 134.672 -18.7173 142.01 -1.69519 147.304ZM150.424 98.152H110.68V298.6H150.424V216.232C150.738 216.791 151.072 217.34 151.424 217.88C158.525 228.732 173.418 235.528 189.88 235.528C207.736 235.528 223 228.904 235.672 215.944C248.632 202.984 254.968 185.992 254.968 164.968C254.968 144.52 248.632 127.816 235.672 114.856C223 101.896 207.736 95.272 189.88 95.272C173.418 95.272 158.525 101.806 151.424 113.132C151.072 113.695 150.738 114.27 150.424 114.856V98.152ZM149.424 297.6V212.405L151.296 215.743C157.689 227.139 172.836 234.528 189.88 234.528C207.457 234.528 222.466 228.02 234.957 215.245L234.965 215.237C247.706 202.496 253.968 185.775 253.968 164.968C253.968 144.746 247.712 128.309 234.965 115.563L234.957 115.555C222.466 102.78 207.457 96.272 189.88 96.272C172.825 96.272 157.697 103.379 151.306 115.328L149.424 114.856V99.152H111.68V297.6H149.424ZM150.288 165.832C150.288 146.59 164.531 132.288 182.392 132.288C200.242 132.288 214.496 146.002 214.496 165.832C214.496 185.098 200.231 198.8 182.392 198.8C164.572 198.8 150.288 185.98 150.288 165.832ZM318.202 98.152H278.17V232.648H318.202V185.704C318.202 149.992 329.434 132.136 351.61 132.136C359.222 132.136 365.807 133.419 371.124 135.743C371.44 135.881 371.751 136.023 372.058 136.168L379.258 100.168C372.634 97 365.146 95.272 356.218 95.272C341.674 95.272 326.346 106.253 319.202 127.469C318.849 128.52 318.515 129.595 318.202 130.696V98.152ZM378.124 100.741L371.324 134.74C365.892 132.405 359.235 131.136 351.61 131.136C340.2 131.136 331.517 135.759 325.742 144.998C320.016 154.16 317.202 167.775 317.202 185.704V231.648H279.17V99.152H317.202V130.696L319.164 130.969C325.701 107.948 341.518 96.272 356.218 96.272C364.694 96.272 371.819 97.8518 378.124 100.741ZM394.192 232.648V98.152H433.936V232.648H394.192ZM432.936 231.648V99.152H395.192V231.648H432.936ZM414.063 26C400.721 26 390.008 35.9888 390.008 48.328C390.008 60.6826 400.737 70.944 414.063 70.944C427.079 70.944 437.544 60.7048 437.544 48.328C437.544 35.9668 427.095 26 414.063 26ZM504.964 98.152H464.932V232.648H504.964V161.512C504.964 143.368 513.316 134.152 529.732 134.152C543.844 134.152 553.06 143.656 553.06 160.936V232.648H593.092V152.296C593.092 114.568 574.948 95.272 543.844 95.272C528.701 95.272 513.558 103.432 505.964 115.976C505.614 116.554 505.28 117.14 504.964 117.736V98.152ZM592.092 231.648V152.296C592.092 133.578 587.59 119.593 579.382 110.298C571.191 101.022 559.182 96.272 543.844 96.272C528.341 96.272 512.858 105.023 505.846 118.206L503.964 117.736V99.152H465.932V231.648H503.964V161.512C503.964 152.305 506.081 145.182 510.45 140.357C514.836 135.513 521.338 133.152 529.732 133.152C537.022 133.152 543.143 135.614 547.432 140.396C551.709 145.165 554.06 152.125 554.06 160.936V231.648H592.092ZM636.531 99.152H612.051V128.832H636.531V231.648H674.275V128.832H702.499V99.152H674.275V47.6H636.531V99.152ZM675.275 46.6V98.152H703.499V129.832H675.275V232.648H635.531V129.832H611.051V98.152H635.531V46.6H675.275ZM774.966 180.995C779.754 182.301 783.246 183.788 785.544 185.775C787.908 187.819 788.95 190.337 788.95 193.48C788.95 197.206 786.91 200.225 783.749 202.307C780.604 204.378 776.307 205.563 771.566 205.712L771.55 205.712H771.535C765.976 205.712 760.86 203.76 757.086 200.741C753.597 197.95 751.194 194.192 750.735 190.16H715.252C715.772 203.521 721.118 214.39 731.811 222.342C742.853 230.552 755.886 234.528 770.382 234.528C785.768 234.528 799.116 230.826 810.46 223.736L810.47 223.73C821.981 216.711 827.558 206.666 827.558 193.48C827.558 189.501 827.273 185.764 825.582 181.657C823.887 177.541 820.747 172.973 814.909 167.421C809.289 162.082 801.672 157.836 791.733 155.281L791.726 155.278L768.971 149.23C765.161 148.204 762.123 146.859 759.985 145.071C757.814 143.255 756.586 140.992 756.424 138.243L756.424 138.232C756.263 134.851 757.731 132.015 760.438 130.065C763.109 128.14 766.937 127.104 771.535 127.104C776.684 127.104 780.687 128.13 783.456 130.306C786.04 132.336 787.417 135.26 787.738 138.912H823.5C822.997 124.429 817.649 113.868 807.551 107.045C797.083 99.9721 784.325 96.272 769.23 96.272C755.325 96.272 743.442 100.24 733.255 107.88C723.053 115.531 718.091 123.914 717.814 133.605L717.814 133.61C717.671 137.76 717.746 140.912 718.372 144.15C718.998 147.383 720.184 150.752 722.32 155.31C726.732 163.839 738.75 171.51 757.388 176.385L774.966 180.995ZM721.422 155.752C717.103 146.536 716.526 141.928 716.814 133.576C717.103 123.496 722.286 114.856 732.655 107.08C743.022 99.304 755.119 95.272 769.23 95.272C784.495 95.272 797.454 99.016 808.11 106.216C818.532 113.258 823.996 124.157 824.5 138.912C824.511 139.243 824.52 139.577 824.526 139.912H786.798C786.51 132.136 781.615 128.104 771.535 128.104C762.606 128.104 757.135 132.136 757.422 138.184C757.71 143.08 761.743 146.248 769.23 148.264L791.983 154.312C802.062 156.904 809.839 161.224 815.599 166.696C827.406 177.928 828.558 185.416 828.558 193.48C828.558 207.016 822.798 217.384 810.99 224.584C799.47 231.784 785.934 235.528 770.382 235.528C755.694 235.528 742.447 231.496 731.214 223.144C720.249 214.99 714.773 203.817 714.252 190.16C714.239 189.828 714.229 189.495 714.223 189.16H751.662C751.95 197.224 760.879 204.712 771.535 204.712C780.75 204.424 787.95 200.104 787.95 193.48C787.95 187.72 784.207 184.552 774.703 181.96L757.135 177.352C738.415 172.456 726.031 164.68 721.422 155.752ZM-872.104 90.088C-880.456 78.28 -891.976 72.52 -907.24 72.52H-942.952V194.344H-907.24C-891.976 194.344 -880.456 188.584 -872.104 177.064C-863.752 165.544 -859.72 151.144 -859.72 133.864C-859.72 116.296 -863.752 101.896 -872.104 90.088ZM-517.36 48.328C-517.36 35.368 -506.128 25 -492.304 25C-478.768 25 -467.824 35.368 -467.824 48.328C-467.824 61.288 -478.768 71.944 -492.304 71.944C-506.128 71.944 -517.36 61.288 -517.36 48.328ZM-352.732 188.584C-346.108 182.248 -342.94 174.472 -342.94 164.968C-342.94 145.672 -357.916 133.288 -375.484 133.288C-393.052 133.288 -407.74 146.536 -407.74 164.968C-407.74 184.552 -393.052 197.8 -375.484 197.8C-366.844 197.8 -359.356 194.632 -352.732 188.584ZM182.392 133.288C165.112 133.288 151.288 147.112 151.288 165.832C151.288 185.416 165.112 197.8 182.392 197.8C199.672 197.8 213.496 184.552 213.496 165.832C213.496 146.536 199.672 133.288 182.392 133.288ZM389.008 48.328C389.008 35.368 400.24 25 414.063 25C427.599 25 438.544 35.368 438.544 48.328C438.544 61.288 427.599 71.944 414.063 71.944C400.24 71.944 389.008 61.288 389.008 48.328Z" fill="white"/>
</g>
<defs>
<clipPath id="clip0">
<rect width="375" height="321" fill="white"/>
</clipPath>
</defs>
</svg>
