<svg width="108" height="30" viewBox="0 0 108 30" fill="none" xmlns="http://www.w3.org/2000/svg">
<path d="M107.94 15.0418C107.858 14.7468 107.597 14.2519 106.768 14.2519C106.371 14.2519 106.044 14.3518 105.798 14.5483C105.563 14.7366 105.347 15.0772 105.139 15.5931C104.41 17.4585 103.641 18.9363 102.853 19.9846C102.12 20.9601 101.451 21.4761 100.919 21.4761C100.426 21.4761 100.324 20.6005 100.324 19.8656C100.324 19.6338 100.337 19.3823 100.363 19.1172C100.39 18.8391 100.415 18.5944 100.436 18.381C100.457 18.1804 100.504 17.9119 100.579 17.5808C100.657 17.2267 100.711 16.9724 100.744 16.8025C100.776 16.6386 100.846 16.3565 100.952 15.9643C101.058 15.5714 101.129 15.3035 101.158 15.1886C101.184 15.0846 101.261 14.8059 101.393 14.3375C101.523 13.8766 101.599 13.6142 101.618 13.5571L102.232 11.3743H103.409C103.826 11.3743 104.197 11.2254 104.511 10.9311C104.831 10.632 104.993 10.2261 104.993 9.72514C104.993 8.97872 104.523 8.55113 103.704 8.55113H103.045L103.866 5.68512C104.021 5.16916 103.983 4.6933 103.751 4.27047C103.442 3.70556 102.994 3.58727 102.672 3.58727C102.321 3.58727 101.999 3.71847 101.712 3.97748C101.442 4.2222 101.247 4.53899 101.132 4.92171L100.082 8.55045H99.5416C99.1105 8.55045 98.7392 8.67553 98.438 8.92298C98.1191 9.18538 97.9579 9.57014 97.9579 10.0684C97.9579 10.4716 98.0844 10.7945 98.3326 11.0283C98.5753 11.2574 98.8834 11.3736 99.2472 11.3736H99.3165L98.8208 13.1017C98.7895 13.2186 98.7018 13.5299 98.4624 14.3477C98.3516 14.725 98.2591 15.0472 98.1864 15.3056C98.1435 15.396 98.1034 15.4871 98.0647 15.5829C97.2439 17.3925 96.264 18.8493 95.1522 19.9139C94.0697 20.9499 92.9164 21.4754 91.7258 21.4754C90.8941 21.4754 90.2896 21.2402 89.8775 20.7555C89.4586 20.264 89.2458 19.5781 89.2458 18.7181C89.2458 17.9534 89.3356 17.16 89.5137 16.362C89.5899 16.154 89.6402 15.9514 89.664 15.7583C89.698 15.6353 89.7313 15.5204 89.7653 15.4082C90.1067 14.2893 90.6174 13.3104 91.2824 12.4987C91.9202 11.7197 92.5907 11.341 93.3312 11.341C93.5182 11.341 93.6495 11.4063 93.7562 11.5517C93.882 11.7237 93.9432 11.9297 93.9432 12.1819C93.9432 12.8535 93.644 13.5904 93.0545 14.3729L93.0395 14.3946C92.6777 14.9738 92.5016 15.4449 92.5016 15.8344C92.5016 16.2641 92.6417 16.604 92.9185 16.8433C93.1823 17.0724 93.5141 17.1886 93.9058 17.1886C94.3811 17.1886 94.7959 16.9412 95.14 16.451C95.6969 15.6495 96.1212 14.8875 96.4021 14.1866C96.6883 13.4708 96.8339 12.6911 96.8339 11.8699C96.8339 9.67619 95.7533 8.51714 93.7093 8.51714C92.4595 8.51714 91.245 9.01883 90.1006 10.0086C88.9772 10.98 88.0626 12.2852 87.3813 13.8882C87.1181 14.5075 86.9019 15.1492 86.7393 15.7964C86.0138 17.6223 85.2978 19.0472 84.6096 20.0329C83.9507 20.9764 83.3292 21.4747 82.8124 21.4747C82.6492 21.4747 82.1514 21.4747 82.1514 20.0274C82.1514 18.9785 82.484 17.2702 83.1395 14.9507C83.3639 14.1567 83.3305 13.5823 83.0361 13.1934C82.794 12.8733 82.3928 12.7108 81.8454 12.7108C81.4952 12.7108 81.1974 12.8202 80.9594 13.0357C80.7398 13.2356 80.5392 13.5911 80.3454 14.1241L80.3392 14.1431C79.6409 16.5387 78.8705 18.3966 78.049 19.6651C77.2718 20.8663 76.4708 21.4747 75.6677 21.4747C75.5569 21.4747 75.2196 21.4747 74.9183 20.8595C74.6837 20.3809 74.5647 19.7643 74.5647 19.0281C74.5647 18.1362 74.6749 17.2654 74.8925 16.4401C74.9313 16.3232 74.9632 16.2097 74.9884 16.103C75.0741 15.8202 75.172 15.5421 75.2801 15.277C75.75 14.118 76.4395 13.1581 77.3296 12.4246C78.2027 11.7047 79.1935 11.3396 80.2726 11.3396C80.6928 11.3396 81.056 11.3777 81.3524 11.4532C81.7033 11.5422 81.8679 11.6272 81.9434 11.6823C82.1004 11.7971 82.2772 11.9012 82.4697 11.9909C82.6846 12.0915 82.9157 12.1425 83.1565 12.1425C83.5713 12.1425 83.9147 11.999 84.1758 11.7169C84.4308 11.4409 84.56 11.1235 84.56 10.772C84.56 10.0338 84.1282 9.45866 83.2775 9.06166C82.503 8.70001 81.6238 8.51714 80.6656 8.51714C78.9929 8.51714 77.4452 9.00387 76.0662 9.96442C74.6953 10.9195 73.608 12.2302 72.8348 13.8603C72.503 14.5598 72.2385 15.3001 72.0494 16.0601C71.3606 17.7589 70.6799 19.0954 70.0251 20.0329C69.3662 20.9764 68.7447 21.4747 68.2279 21.4747C67.9491 21.4747 67.9273 20.731 67.9273 20.5026C67.9273 20.2939 67.9402 20.0682 67.9668 19.831C67.9926 19.591 68.0382 19.3048 68.1021 18.9805C68.1674 18.6481 68.2272 18.3456 68.2823 18.0723C68.3346 17.8079 68.4237 17.4551 68.5468 17.0227C68.6706 16.587 68.7726 16.2192 68.8508 15.9296C68.9256 15.6502 69.0486 15.2355 69.2166 14.6958C69.3852 14.1506 69.5137 13.7386 69.6015 13.4599C69.6885 13.1812 69.8313 12.7251 70.0278 12.0915C70.223 11.4634 70.3597 11.0256 70.446 10.7557C70.5582 10.5246 70.6147 10.2934 70.6147 10.0678C70.6147 9.83119 70.5297 9.61025 70.3617 9.41107C70.1781 9.1949 69.8823 9.09021 69.4566 9.09021C69.1404 9.09021 68.8065 9.19286 68.4652 9.39476C67.4438 9.99909 66.5707 10.3866 65.8608 10.5511C66.0934 9.81691 66.2069 9.23772 66.2069 8.78974C66.2069 7.66264 65.5977 7.04199 64.492 7.04199C63.6733 7.04199 62.9906 7.3377 62.4629 7.92096C61.9427 8.49539 61.6789 9.22821 61.6789 10.1004C61.6789 11.0555 61.8373 11.7727 62.163 12.2839C62.1086 12.4219 62.0148 12.6673 61.8455 13.1221C61.6353 13.6843 61.4347 14.2125 61.2491 14.6904C61.0648 15.1642 60.9492 15.4599 60.9023 15.5775C60.8384 15.7073 60.786 15.8378 60.7473 15.9677C60.0639 17.6549 59.3451 19.0057 58.6107 19.9826C57.8777 20.9581 57.2086 21.474 56.6761 21.474C56.1845 21.474 56.0811 20.5984 56.0811 19.8636C56.0811 19.6318 56.0947 19.3803 56.1206 19.1151C56.1478 18.8371 56.1723 18.5924 56.194 18.3789C56.2144 18.1791 56.262 17.9105 56.3355 17.5788C56.415 17.2219 56.4687 16.967 56.5007 16.8011C56.5225 16.6876 56.5769 16.4503 56.7088 15.9622C56.8169 15.5612 56.8863 15.3008 56.9148 15.1866C56.94 15.0846 57.0175 14.8059 57.1501 14.3362C57.28 13.876 57.3561 13.6129 57.3752 13.5551L57.9885 11.3723H59.1656C59.5831 11.3723 59.9537 11.2234 60.2679 10.9291C60.5875 10.6299 60.75 10.2241 60.75 9.7231C60.75 8.97668 60.2801 8.54909 59.4607 8.54909H58.8018L59.6232 5.68308C59.7783 5.16712 59.7395 4.69194 59.5083 4.26843C59.1989 3.70352 58.7508 3.58523 58.4292 3.58523C58.079 3.58523 57.7567 3.71644 57.4697 3.97544C57.1991 4.22016 57.0046 4.53695 56.8897 4.91967L55.8391 8.54841H55.2992C54.868 8.54841 54.4968 8.67349 54.1955 8.92094C53.8766 9.18334 53.7154 9.5681 53.7154 10.0664C53.7154 10.4695 53.8419 10.7924 54.0901 11.0263C54.3329 11.2554 54.6409 11.3716 55.0047 11.3716H55.0741L54.5784 13.0996C54.5464 13.2172 54.4587 13.5293 54.22 14.3464C54.1092 14.7257 54.016 15.0472 53.9439 15.3042C53.9011 15.3946 53.8596 15.4898 53.8188 15.5904C53.2531 17.0316 52.6241 18.2144 51.9509 19.1049C51.4864 19.7188 51.024 20.2212 50.5691 20.6066C50.6344 20.4455 50.699 20.2721 50.7636 20.0852C50.9975 19.4061 51.1165 18.6753 51.1165 17.9133C51.1165 16.7168 50.8758 15.5877 50.3998 14.5578C49.9517 13.5864 49.1962 12.2982 48.1545 10.7258C48.6087 9.908 48.8385 9.16906 48.8385 8.52666C48.8385 8.01002 48.6468 7.54979 48.2687 7.15891C47.8879 6.76531 47.4139 6.56613 46.8611 6.56613C46.0349 6.56613 45.3787 6.86388 44.9095 7.45122C44.4573 8.01749 44.2282 8.70477 44.2282 9.49333C44.2282 10.0052 44.3676 10.5694 44.643 11.1731C44.5192 11.4817 44.3329 11.9623 44.0765 12.6353C43.7855 13.3974 43.5298 14.0636 43.3149 14.6156C43.2061 14.8957 43.1177 15.12 43.0525 15.2825C43.0103 15.3749 42.9688 15.4728 42.9287 15.5741C42.8532 15.7209 42.7947 15.8671 42.7553 16.0098C42.4405 16.759 42.044 17.4558 41.5776 18.0825C41.0247 18.8249 40.4284 19.4346 39.8055 19.8949C39.2799 20.2837 38.7807 20.6093 38.319 20.8649C38.7141 20.4394 39.1092 19.9288 39.4975 19.3429C39.9605 18.6434 40.3427 17.78 40.6337 16.778C40.9248 15.7767 41.0716 14.7033 41.0716 13.5884C41.0716 12.0364 40.7643 10.7992 40.1584 9.91072C39.5267 8.98484 38.6121 8.51578 37.4398 8.51578C36.7122 8.51578 35.9894 8.71632 35.2896 9.11264C34.9837 9.28599 34.6981 9.48449 34.4335 9.7061L36.6503 2.09649C36.8067 1.588 36.7591 1.11146 36.5075 0.680474C36.1743 0.118964 35.7153 0 35.3889 0C35.0415 0 34.7151 0.129841 34.4186 0.385443C34.1316 0.633568 33.9392 0.949673 33.8474 1.3256L29.6872 15.9636C29.4363 16.5285 29.2112 16.9921 29.0174 17.3416C28.8059 17.7229 28.5366 18.0914 28.2164 18.4367C27.9117 18.7657 27.5513 19.0091 27.146 19.1607C26.8224 19.2817 26.4456 19.3694 26.0227 19.4224C26.2654 18.2634 26.6326 16.6679 27.1168 14.6706C27.6608 12.4232 28.1082 10.4695 28.4462 8.86248C28.7923 7.21534 28.9609 6.0291 28.9609 5.23645C28.9609 4.02166 28.6502 3.03528 28.0375 2.30382C27.4106 1.55741 26.5048 1.17876 25.3454 1.17876C24.9809 1.17876 24.6382 1.20528 24.3281 1.25694C24.0058 1.31064 23.6917 1.41057 23.3938 1.55333C23.1137 1.68725 22.8505 1.83069 22.6112 1.97888C22.3541 2.13795 22.0971 2.37248 21.8482 2.67499C21.6143 2.95846 21.4015 3.23378 21.2138 3.49278C21.0193 3.76198 20.8092 4.12363 20.5895 4.5689C20.3726 5.00872 20.1775 5.42 20.0115 5.79117C19.8395 6.17321 19.6335 6.67422 19.3989 7.2806C19.1636 7.88697 18.9508 8.45392 18.7658 8.96649C18.5829 9.47157 18.351 10.1228 18.077 10.9012C17.3636 12.9086 16.685 14.6686 16.0581 16.1397C14.66 15.5612 13.3707 15.2682 12.2209 15.2682C10.8976 15.2682 9.73547 15.672 8.7658 16.468L8.75696 16.4755C8.40541 16.7862 8.22793 17.1832 8.22793 17.6549C8.22793 18.0207 8.34489 18.3497 8.57472 18.6338C8.8168 18.9329 9.13708 19.0913 9.50088 19.0913C9.85923 19.0913 10.1972 18.9561 10.4998 18.6923C10.9826 18.2885 11.5885 18.092 12.3514 18.092C13.098 18.092 13.9453 18.2688 14.8742 18.6189C13.91 20.4679 12.8641 21.9336 11.7639 22.9784C10.6371 24.0477 9.3574 24.5902 7.96001 24.5902C7.44457 24.5902 6.94682 24.5222 6.47898 24.389C6.01591 24.2564 5.55895 24.0341 5.11967 23.7275C4.68176 23.4223 4.29688 23.0341 3.97457 22.5746C3.65225 22.1137 3.38841 21.5148 3.19121 20.7935C2.99197 20.0655 2.89065 19.2355 2.89065 18.3273C2.89065 17.0812 3.03345 15.9147 3.31429 14.8596C3.59445 13.8087 3.98068 12.8984 4.46348 12.154C4.9456 11.4103 5.52631 10.7686 6.18999 10.2459C6.8523 9.72446 7.57921 9.33086 8.34965 9.07525C9.12348 8.81897 9.95171 8.68913 10.8099 8.68913C11.4008 8.68913 12.0067 8.81353 12.6118 9.05962C13.1817 9.29143 13.5502 9.61705 13.7386 10.0555C13.8522 10.3451 14.0004 10.5783 14.1779 10.7496C14.3832 10.9481 14.6838 11.048 15.0707 11.048C15.5419 11.048 15.9132 10.9012 16.1743 10.6109C16.428 10.3302 16.5565 9.97734 16.5565 9.56267C16.5565 9.3125 16.5082 9.08681 16.4137 8.89375C16.1193 8.21463 15.6337 7.62865 14.9707 7.15212C14.3214 6.6851 13.6291 6.34996 12.9144 6.15486C12.2073 5.96316 11.4885 5.86594 10.7779 5.86594C9.71371 5.86594 8.65768 6.02774 7.63837 6.34656C6.61702 6.66606 5.63307 7.16911 4.7144 7.84143C3.79845 8.5117 2.97973 9.3295 2.28138 10.2737C1.58099 11.2207 1.01931 12.3818 0.611995 13.725C0.205358 15.0622 0 16.5387 0 18.1124C0 19.6148 0.209438 20.9798 0.623555 22.1688C1.04039 23.3693 1.62111 24.3577 2.34802 25.1068C3.07221 25.8539 3.90521 26.4304 4.82388 26.822C5.74255 27.2135 6.7367 27.4113 7.77845 27.4113C9.87487 27.4113 11.7387 26.7336 13.3184 25.3978C14.8171 24.1293 16.2179 22.2456 17.484 19.797C17.5901 19.8507 17.7404 19.9282 17.9532 20.0383C18.4142 20.2776 18.6828 20.4142 18.7978 20.4686C18.9127 20.5237 19.1616 20.6413 19.5444 20.8214C19.9367 21.0063 20.2237 21.1348 20.4216 21.2137C20.6127 21.2905 20.8677 21.3918 21.1845 21.5168C21.5089 21.646 21.8169 21.7514 22.0998 21.8302C22.2848 21.8819 22.4765 21.9329 22.6737 21.9811C22.569 22.7017 22.516 23.3169 22.516 23.8132C22.516 25.5419 22.673 26.8913 22.9818 27.8247C23.3088 28.8124 23.8807 29.4915 24.6811 29.843C24.9197 29.9477 25.1557 30 25.3828 30C25.6691 30 25.9418 29.9177 26.1927 29.7532C26.7605 29.38 26.8795 28.9273 26.8795 28.6132C26.8795 28.2455 26.7918 27.9552 26.6177 27.7512C26.4674 27.5752 26.2192 27.3903 25.8609 27.187C25.7663 27.1272 25.5984 26.9355 25.5168 26.3203C25.4427 25.7649 25.4046 24.9104 25.4046 23.7806C25.4046 23.4257 25.4467 22.9213 25.5311 22.2775C26.4558 22.2429 27.2902 22.0913 28.0212 21.8262L27.9172 22.1932C27.7676 22.7412 27.7812 23.2204 27.9573 23.6181C28.0953 23.9288 28.4135 24.2999 29.1466 24.2999C29.626 24.2999 29.9843 24.1769 30.2135 23.9328C30.4168 23.7167 30.5807 23.4019 30.7174 22.9682L30.7881 22.7337C31.5925 23.7731 32.8668 24.2992 34.5865 24.2992C35.2128 24.2992 35.8731 24.2401 36.5476 24.1225C37.2276 24.0042 38.0042 23.767 38.8569 23.4162C39.711 23.0647 40.531 22.6093 41.2947 22.0634C42.061 21.5155 42.8369 20.7602 43.5992 19.8201C44.3614 18.8799 45.0129 17.7834 45.5358 16.5611L45.5392 16.5523C45.5895 16.4238 45.6303 16.2967 45.6602 16.1737C45.8234 15.7393 46.1383 14.9154 46.5979 13.721C47.0991 14.4368 47.4867 15.0874 47.7539 15.6611C48.0667 16.3334 48.2252 17.1356 48.2252 18.0465C48.2252 18.8004 47.9695 19.5645 47.4656 20.317C46.9876 21.0315 46.5361 21.3931 46.1226 21.3931C45.9921 21.3931 45.8241 21.2918 45.6364 21.1001C45.3264 20.784 45.0156 20.6236 44.713 20.6236C44.2792 20.6236 43.9324 20.78 43.6808 21.0886C43.4448 21.3782 43.3251 21.7432 43.3251 22.1749C43.3251 22.7983 43.7223 23.3217 44.5049 23.7316C45.223 24.1082 46.1478 24.2992 47.2521 24.2992C48.215 24.2992 49.1003 24.185 49.885 23.96C50.6732 23.7337 51.4728 23.336 52.263 22.7772C52.6417 22.5093 53.0144 22.1824 53.3741 21.8017C53.4958 22.266 53.6685 22.6807 53.8909 23.0403C54.407 23.8757 55.2339 24.2992 56.347 24.2992C57.6655 24.2992 58.9711 23.5957 60.2277 22.2082C61.4477 20.8608 62.5526 18.9601 63.5114 16.5591C63.5706 16.4218 63.6209 16.2838 63.6597 16.1472C64.0908 15.0642 64.4322 14.1601 64.6769 13.4545H64.7041C65.3039 13.4545 65.9608 13.362 66.6639 13.1799C66.6489 13.2336 66.6353 13.2886 66.6217 13.345C65.5922 16.6189 65.0707 19.0274 65.0707 20.5033C65.0707 21.7255 65.2978 22.6657 65.7452 23.2972C66.2165 23.9614 66.925 24.2986 67.8505 24.2986C69.1601 24.2986 70.4345 23.6018 71.6367 22.2286C71.7747 22.0709 71.9134 21.903 72.0515 21.7249C72.199 22.145 72.3894 22.5263 72.6206 22.8635C73.2734 23.8159 74.1771 24.2986 75.3066 24.2986C76.7856 24.2986 78.1265 23.546 79.3016 22.0607C79.494 22.6854 79.8136 23.1864 80.2556 23.5556C80.8452 24.0484 81.5836 24.2986 82.4513 24.2986C83.761 24.2986 85.0326 23.6018 86.23 22.2279C86.4238 22.0049 86.6183 21.7629 86.8108 21.5033C87.0175 22.009 87.2949 22.4584 87.639 22.8445C88.4985 23.8091 89.7524 24.2986 91.366 24.2986C93.2231 24.2986 94.9646 23.6324 96.5435 22.3197C96.8781 22.041 97.2079 21.731 97.5281 21.3931C97.6471 22.0267 97.8505 22.5787 98.136 23.0403C98.6522 23.8757 99.479 24.2992 100.592 24.2992C101.911 24.2992 103.216 23.5957 104.473 22.2082C105.693 20.8608 106.798 18.9601 107.757 16.5591C107.999 15.9949 108.061 15.485 107.94 15.0418ZM37.7193 16.4558C37.4112 17.4258 37.0277 18.2878 36.5789 19.0172C36.1322 19.7419 35.6364 20.3469 35.1047 20.816C34.6076 21.2544 34.1629 21.4767 33.7835 21.4767C33.3802 21.4767 33.0742 21.3523 32.8498 21.0967C32.6098 20.8248 32.4616 20.4326 32.4085 19.9316C32.3507 19.3905 32.367 18.7759 32.4568 18.1036C32.5466 17.4252 32.7057 16.6706 32.9294 15.8603C33.489 14.2267 34.1398 13.0473 34.864 12.3539C35.5664 11.6823 36.2831 11.341 36.9958 11.341C37.2888 11.341 38.181 11.341 38.181 13.6564C38.1803 14.5483 38.0246 15.4905 37.7193 16.4558ZM26.0703 5.33503C26.0703 5.81292 25.9017 6.83261 25.5691 8.36623C25.2291 9.93315 24.7939 11.8611 24.2758 14.0955C23.7943 16.1716 23.4183 17.8779 23.1579 19.1743C22.7247 19.0512 22.2426 18.8854 21.7204 18.6801C21.0587 18.4197 20.5345 18.2015 20.1625 18.0315C19.8225 17.8765 19.3132 17.6298 18.6454 17.2974C19.2969 15.7889 20.0428 13.8338 20.8656 11.4783C21.8387 8.60348 22.6363 6.59468 23.2361 5.50769C23.7869 4.50908 24.4131 4.00331 25.0986 4.00331C25.4093 4.00331 25.6324 4.10392 25.799 4.31873C25.9792 4.5519 26.0703 4.89384 26.0703 5.33503Z" fill="white"/>
</svg>
