<svg width="375" height="218" viewBox="0 0 375 218" fill="none" xmlns="http://www.w3.org/2000/svg">
<g clip-path="url(#clip0)">
<path opacity="0.3" fill-rule="evenodd" clip-rule="evenodd" d="M-875.329 -14.416V146H-834.705V-14.416H-781.137V-50.432H-928.897V-14.416H-875.329ZM-929.897 -51.432H-780.137V-13.416H-833.705V147H-876.329V-13.416H-929.897V-51.432ZM-759.352 147V12.504H-719.608V147H-759.352ZM-720.608 146V13.504H-758.352V146H-720.608ZM-739.48 -59.648C-752.823 -59.648 -763.536 -49.6592 -763.536 -37.32C-763.536 -24.9654 -752.806 -14.704 -739.48 -14.704C-726.465 -14.704 -716 -24.9432 -716 -37.32C-716 -49.6812 -726.448 -59.648 -739.48 -59.648ZM-599.225 103.667L-599.233 103.674C-606.021 109.872 -613.744 113.152 -622.66 113.152C-640.762 113.152 -655.916 99.4737 -655.916 79.32C-655.916 60.2948 -640.738 46.64 -622.66 46.64C-604.612 46.64 -589.116 59.4019 -589.116 79.32C-589.116 89.0789 -592.383 97.1219 -599.216 103.659L-599.225 103.667ZM-590.252 27.5671C-597.424 16.6849 -613.105 9.62399 -629.572 9.62399C-647.716 9.62399 -663.268 16.248 -676.804 29.496C-690.052 42.456 -696.676 59.448 -696.676 80.184C-696.676 100.632 -690.052 117.336 -676.804 130.296C-663.268 143.256 -647.716 149.88 -629.572 149.88C-613.093 149.88 -596.876 142.808 -590.163 131.912C-589.836 131.382 -589.532 130.844 -589.252 130.296C-589.212 130.927 -589.178 131.552 -589.149 132.17C-587.73 162.883 -600.148 178.104 -626.404 178.104C-639.878 178.104 -654.995 169.348 -660.018 157.436C-660.148 157.128 -660.271 156.817 -660.388 156.504L-692.644 172.344C-681.124 197.688 -656.068 214.104 -626.404 214.104C-577.732 214.104 -550.372 185.016 -550.372 128.28V12.504H-589.252V29.208C-589.564 28.6519 -589.897 28.1048 -590.252 27.5671ZM-588.252 13.504V33.0345L-590.124 29.6972C-596.514 18.3055 -612.521 10.624 -629.572 10.624C-647.437 10.624 -662.743 17.1333 -676.104 30.2107C-689.135 42.958 -695.676 59.6797 -695.676 80.184C-695.676 100.391 -689.141 116.826 -676.109 129.577C-662.745 142.37 -647.437 148.88 -629.572 148.88C-621.075 148.88 -612.655 146.967 -605.631 143.614C-598.597 140.256 -593.036 135.492 -590.142 129.84L-588.483 126.601L-588.254 130.233C-587.239 146.325 -589.83 158.568 -596.239 166.802C-602.679 175.077 -612.814 179.104 -626.404 179.104C-633.526 179.104 -641.05 176.735 -647.38 172.797C-653.368 169.072 -658.364 163.893 -660.917 157.878L-691.326 172.811C-679.795 197.29 -655.338 213.104 -626.404 213.104C-602.27 213.104 -583.565 205.899 -570.879 191.799C-558.177 177.682 -551.372 156.502 -551.372 128.28V13.504H-588.252ZM-479.121 -60.648H-519.153V147H-479.121V75.864C-479.121 57.144 -467.025 48.504 -452.337 48.504C-439.377 48.504 -427.569 58.872 -427.569 75.288V147H-387.537V73.848C-387.537 32.664 -406.545 9.62399 -441.393 9.62399C-448.593 9.62399 -456.081 11.64 -463.857 15.96C-470.728 19.5225 -475.35 24.4341 -478.121 30.8934C-478.486 31.7446 -478.819 32.6226 -479.121 33.528V-60.648ZM-388.537 146V73.848C-388.537 53.3929 -393.259 37.5983 -402.165 26.9329C-411.046 16.296 -424.204 10.624 -441.393 10.624C-448.399 10.624 -455.721 12.5839 -463.371 16.8341L-463.384 16.8411L-463.397 16.8477C-470.949 20.7637 -475.665 26.3226 -478.172 33.8442L-480.121 33.528V-59.648H-518.153V146H-480.121V75.864C-480.121 66.2781 -477.016 59.1525 -471.916 54.4302C-466.83 49.7207 -459.87 47.504 -452.337 47.504C-438.81 47.504 -426.569 58.3345 -426.569 75.288V146H-388.537ZM-344.46 13.504H-368.94V43.184H-344.46V146H-306.716V43.184H-278.492V13.504H-306.716V-38.048H-344.46V13.504ZM-305.716 -39.048V12.504H-277.492V44.184H-305.716V147H-345.46V44.184H-369.94V12.504H-345.46V-39.048H-305.716ZM-218.672 12.504H-258.704V147H-218.672V100.056C-218.672 64.344 -207.44 46.488 -185.264 46.488C-177.653 46.488 -171.068 47.7709 -165.751 50.0946C-165.435 50.2327 -165.123 50.3745 -164.816 50.52L-157.616 14.52C-164.24 11.352 -171.728 9.62399 -180.656 9.62399C-195.2 9.62399 -210.528 20.6055 -217.672 41.8211C-218.026 42.8716 -218.36 43.9473 -218.672 45.048V12.504ZM-158.751 15.093L-165.55 49.0916C-170.982 46.757 -177.639 45.488 -185.264 45.488C-196.674 45.488 -205.358 50.1107 -211.132 59.35C-216.859 68.512 -219.672 82.1271 -219.672 100.056V146H-257.704V13.504H-219.672V45.048L-217.71 45.3211C-211.173 22.2998 -195.357 10.624 -180.656 10.624C-172.181 10.624 -165.056 12.2038 -158.751 15.093ZM-83.301 111.136C-100.839 111.136 -114.541 98.3105 -114.541 79.32C-114.541 61.1997 -100.845 47.792 -83.301 47.792C-65.7692 47.792 -51.773 61.1873 -51.773 79.32C-51.773 98.3167 -65.4812 111.136 -83.301 111.136ZM-34.4565 129.286C-21.1375 116.533 -14.317 99.812 -14.317 79.32C-14.317 58.8325 -21.1345 42.3975 -34.4565 29.6423C-47.795 16.8714 -63.9584 10.624 -83.301 10.624C-102.644 10.624 -118.807 16.8714 -132.145 29.6423C-145.46 42.3905 -151.997 58.8213 -151.997 79.32C-151.997 99.8232 -145.457 116.54 -132.145 129.286C-118.807 142.057 -102.644 148.304 -83.301 148.304C-63.9584 148.304 -47.795 142.057 -34.4565 129.286ZM49.3635 12.504H9.61951V212.952H49.3635V130.584C49.6771 131.143 50.0107 131.692 50.3635 132.232C57.4638 143.084 72.3575 149.88 88.8195 149.88C106.675 149.88 121.94 143.256 134.612 130.296C147.572 117.336 153.908 100.344 153.908 79.32C153.908 58.872 147.572 42.168 134.612 29.208C121.94 16.248 106.675 9.62399 88.8195 9.62399C72.3575 9.62399 57.4638 16.1584 50.3635 27.4843C50.0107 28.0471 49.6771 28.6217 49.3635 29.208V12.504ZM48.3635 211.952V126.757L50.2357 130.095C56.6286 141.491 71.7751 148.88 88.8195 148.88C106.396 148.88 121.405 142.372 133.897 129.597L133.904 129.589C146.646 116.848 152.908 100.127 152.908 79.32C152.908 59.0979 146.651 42.6615 133.904 29.9151L133.896 29.9072C121.405 17.1321 106.396 10.624 88.8195 10.624C71.764 10.624 56.6364 17.731 50.2453 29.6796L48.3635 29.208V13.504H10.6195V211.952H48.3635ZM49.2275 80.184C49.2275 60.9417 63.4697 46.64 81.3315 46.64C99.1817 46.64 113.436 60.3537 113.436 80.184C113.436 99.4502 99.1699 113.152 81.3315 113.152C63.5114 113.152 49.2275 100.332 49.2275 80.184ZM307.574 92.856C307.608 92.3047 307.642 91.7617 307.676 91.2264C307.926 87.2874 308.15 83.7681 308.15 80.472C308.15 59.448 301.526 42.456 288.278 29.496C275.318 16.248 258.902 9.62399 239.318 9.62399C219.446 9.62399 202.742 15.96 189.206 28.92C175.67 41.88 169.046 58.584 169.046 79.32C169.046 100.056 175.67 117.048 189.206 130.296C202.742 143.256 219.446 149.88 239.318 149.88C267.396 149.88 287.654 140.942 300.091 123.341C300.272 123.086 300.45 122.829 300.627 122.57C300.639 122.553 300.65 122.537 300.662 122.52L271.574 102.648C264.95 111 255.158 115.32 242.198 115.32C226.721 115.32 211.794 107.897 209.237 93.856C209.177 93.5263 209.124 93.193 209.078 92.856H307.574ZM271.768 103.992C264.933 112.152 255.026 116.32 242.198 116.32C226.163 116.32 210.205 108.427 208.087 92.992L207.931 91.856H306.635C306.649 91.6237 306.664 91.3929 306.678 91.1638C306.929 87.2193 307.15 83.7343 307.15 80.472C307.15 59.6775 300.608 42.9568 287.578 30.2108L287.57 30.2031L287.563 30.1953C274.804 17.153 258.652 10.624 239.318 10.624C219.681 10.624 203.231 16.8756 189.897 29.6423C176.582 42.3905 170.046 58.8213 170.046 79.32C170.046 99.8168 176.581 116.537 189.897 129.574C203.239 142.348 219.692 148.88 239.318 148.88C267.166 148.88 287.066 140.032 299.265 122.777L271.768 103.992ZM208.427 68.8L208.674 67.5986C211.961 51.6134 226.008 43.759 239.608 43.796C253.208 43.8329 266.722 51.7742 268.821 67.6691L268.97 68.8H208.427ZM209.654 67.8H267.83C267.785 67.463 267.735 67.1296 267.68 66.8C262.802 37.596 216.95 37.3266 209.876 66.8C209.797 67.1296 209.723 67.463 209.654 67.8ZM445.64 92.9598L445.632 92.951C434.511 80.6595 428.958 65.7279 428.958 48.216C428.958 30.422 434.508 15.4845 445.638 3.47437C456.771 -8.82618 470.573 -14.992 487.27 -14.992C507.729 -14.992 523.97 -6.4575 535.908 10.5386L568.532 -11.9423C551.072 -36.8226 521.142 -52.736 487.27 -52.736C459.308 -52.736 435.953 -43.0478 416.851 -23.3754C398.03 -3.69593 388.622 19.9565 388.622 48.216C388.622 76.186 398.029 99.8389 416.851 119.519C435.953 139.192 459.308 148.88 487.27 148.88C522.012 148.88 551.959 132.671 569.416 106.655L537.056 84.1678C525.635 100.357 507.747 111.136 487.27 111.136C470.572 111.136 456.772 104.97 445.64 92.9598ZM536.238 83.5928C536.429 83.3221 536.618 83.0498 536.806 82.776L570.79 106.392C553.222 133.176 522.694 149.88 487.27 149.88C459.046 149.88 435.43 140.088 416.134 120.216C397.126 100.344 387.622 76.44 387.622 48.216C387.622 19.704 397.126 -4.20002 416.134 -24.072C435.43 -43.944 459.046 -53.736 487.27 -53.736C521.459 -53.736 551.702 -37.6704 569.356 -12.5098C569.456 -12.3679 569.555 -12.2257 569.653 -12.0832C569.745 -11.9517 569.835 -11.82 569.926 -11.688L535.654 11.928C535.541 11.7633 535.428 11.5994 535.315 11.4363C523.538 -5.51591 507.523 -13.992 487.27 -13.992C470.854 -13.992 457.318 -7.94402 446.374 4.15199C435.43 15.96 429.958 30.648 429.958 48.216C429.958 65.496 435.43 80.184 446.374 92.28C457.318 104.088 470.854 110.136 487.27 110.136C507.377 110.136 524.978 99.554 536.238 83.5928ZM641.561 91.5381L641.552 91.5293C630.145 79.5365 624.285 65.1782 624.285 48.216C624.285 31.2537 630.145 16.8954 641.552 4.90277C652.979 -7.10991 667.068 -12.976 683.749 -12.976C700.428 -12.976 714.516 -7.11121 725.942 4.8988C737.641 16.8934 743.501 31.2545 743.501 48.216C743.501 64.892 737.639 79.2525 725.942 91.2453C714.516 103.255 700.428 109.12 683.749 109.12C667.069 109.12 652.985 103.256 641.561 91.5381ZM725.221 90.552C736.741 78.744 742.501 64.632 742.501 48.216C742.501 31.512 736.741 17.4 725.221 5.59199C713.989 -6.21601 700.165 -11.976 683.749 -11.976C667.333 -11.976 653.509 -6.21601 642.277 5.59199C631.045 17.4 625.285 31.512 625.285 48.216C625.285 64.92 631.045 79.032 642.277 90.84C653.509 102.36 667.333 108.12 683.749 108.12C700.165 108.12 713.989 102.36 725.221 90.552ZM613.037 119.514C632.429 139.191 656.075 148.88 683.749 148.88C711.423 148.88 735.068 139.191 754.461 119.514C773.858 99.8316 783.549 75.8927 783.549 48.216C783.549 20.2528 773.859 -3.39854 754.461 -23.0821L754.455 -23.0874C735.35 -42.7629 711.706 -52.736 683.749 -52.736C656.082 -52.736 632.434 -42.7647 613.037 -23.0821C593.926 -3.39796 584.237 20.2543 584.237 48.216C584.237 75.8912 593.927 99.831 613.037 119.514ZM937.109 13.504H861.957V3.28799C861.957 -5.31853 863.703 -11.9894 867.323 -16.5239C870.977 -21.1 876.41 -23.344 883.405 -23.344H897.093V-59.648H883.405C864.16 -59.648 849.26 -54.0218 839.165 -43.4339C829.062 -32.8389 823.637 -17.1347 823.637 3.28799V13.504H798.293V43.184H823.637V146H861.957V43.184H937.109V146H975.429V43.184H1002.5V13.504H975.429V3.28799C975.429 -5.31853 977.175 -11.9894 980.795 -16.5239C984.448 -21.1 989.882 -23.344 996.877 -23.344H1010.56V-59.648H996.877C977.632 -59.648 962.732 -54.0218 952.637 -43.4339C942.534 -32.8389 937.109 -17.1347 937.109 3.28799V13.504ZM996.877 -60.648C957.997 -60.648 936.109 -37.896 936.109 3.28799V12.504H862.957V3.28799C862.957 -13.704 869.869 -22.344 883.405 -22.344H898.093V-60.648H883.405C844.525 -60.648 822.637 -37.896 822.637 3.28799V12.504H797.293V44.184H822.637V147H862.957V44.184H936.109V147H976.429V44.184H1003.5V12.504H976.429V3.28799C976.429 -13.704 983.341 -22.344 996.877 -22.344H1011.56V-60.648H996.877ZM1150.93 92.856C1150.96 92.3091 1151 91.7702 1151.03 91.239C1151.28 87.2949 1151.51 83.7716 1151.51 80.472C1151.51 59.448 1144.88 42.456 1131.63 29.496C1118.67 16.248 1102.26 9.62399 1082.67 9.62399C1062.8 9.62399 1046.1 15.96 1032.56 28.92C1019.03 41.88 1012.4 58.584 1012.4 79.32C1012.4 100.056 1019.03 117.048 1032.56 130.296C1046.1 143.256 1062.8 149.88 1082.67 149.88C1110.75 149.88 1131.01 140.942 1143.45 123.341C1143.64 123.07 1143.83 122.796 1144.02 122.52L1114.93 102.648C1108.31 111 1098.51 115.32 1085.55 115.32C1070.08 115.32 1055.15 107.897 1052.59 93.856C1052.53 93.5263 1052.48 93.193 1052.43 92.856H1150.93ZM1115.12 103.992C1108.29 112.152 1098.38 116.32 1085.55 116.32C1069.52 116.32 1053.56 108.427 1051.44 92.992L1051.29 91.856H1149.99C1150.01 91.6251 1150.02 91.3958 1150.03 91.168C1150.28 87.2218 1150.51 83.7354 1150.51 80.472C1150.51 59.6775 1143.96 42.9568 1130.93 30.2108L1130.93 30.2031L1130.92 30.1953C1118.16 17.153 1102.01 10.624 1082.67 10.624C1063.04 10.624 1046.59 16.8756 1033.25 29.6423C1019.94 42.3905 1013.4 58.8213 1013.4 79.32C1013.4 99.8168 1019.94 116.537 1033.25 129.574C1046.59 142.348 1063.05 148.88 1082.67 148.88C1110.52 148.88 1130.42 140.032 1142.62 122.777L1115.12 103.992ZM1051.78 68.8L1052.03 67.5986C1055.32 51.6134 1069.36 43.759 1082.96 43.796C1096.56 43.8329 1110.08 51.7742 1112.18 67.6691L1112.33 68.8H1051.78ZM1053.01 67.8H1111.19C1111.14 67.463 1111.09 67.1296 1111.04 66.8C1106.16 37.596 1060.31 37.3266 1053.23 66.8C1053.15 67.1296 1053.08 67.463 1053.01 67.8ZM1303.51 92.856C1303.55 92.3091 1303.58 91.7702 1303.62 91.239C1303.87 87.2949 1304.09 83.7716 1304.09 80.472C1304.09 59.448 1297.47 42.456 1284.22 29.496C1271.26 16.248 1254.84 9.62399 1235.26 9.62399C1215.39 9.62399 1198.68 15.96 1185.15 28.92C1171.61 41.88 1164.99 58.584 1164.99 79.32C1164.99 100.056 1171.61 117.048 1185.15 130.296C1198.68 143.256 1215.39 149.88 1235.26 149.88C1263.34 149.88 1283.59 140.942 1296.03 123.341C1296.22 123.07 1296.41 122.796 1296.6 122.52L1267.51 102.648C1260.89 111 1251.1 115.32 1238.14 115.32C1222.66 115.32 1207.73 107.897 1205.18 93.856C1205.12 93.5263 1205.06 93.193 1205.02 92.856H1303.51ZM1267.71 103.992C1260.87 112.152 1250.97 116.32 1238.14 116.32C1222.1 116.32 1206.15 108.427 1204.03 92.992L1203.87 91.856H1302.57C1302.59 91.6251 1302.6 91.3958 1302.62 91.168C1302.87 87.2218 1303.09 83.7354 1303.09 80.472C1303.09 59.6775 1296.55 42.9568 1283.52 30.2108L1283.51 30.2031L1283.5 30.1953C1270.74 17.153 1254.59 10.624 1235.26 10.624C1215.62 10.624 1199.17 16.8756 1185.84 29.6423C1172.52 42.3905 1165.99 58.8213 1165.99 79.32C1165.99 99.8208 1172.52 116.544 1185.85 129.581C1199.19 142.35 1215.64 148.88 1235.26 148.88C1263.11 148.88 1283.01 140.032 1295.21 122.777L1267.71 103.992ZM1204.37 68.8L1204.61 67.5986C1207.9 51.6134 1221.95 43.759 1235.55 43.796C1249.15 43.8329 1262.66 51.7742 1264.76 67.6691L1264.91 68.8H1204.37ZM1205.59 67.8H1263.77C1263.73 67.463 1263.68 67.1296 1263.62 66.8C1258.74 37.596 1212.89 37.3266 1205.82 66.8C1205.74 67.1296 1205.66 67.463 1205.59 67.8ZM-764.536 -37.32C-764.536 -50.28 -753.304 -60.648 -739.48 -60.648C-725.944 -60.648 -715 -50.28 -715 -37.32C-715 -24.36 -725.944 -13.704 -739.48 -13.704C-753.304 -13.704 -764.536 -24.36 -764.536 -37.32ZM-599.908 102.936C-593.284 96.6 -590.116 88.824 -590.116 79.32C-590.116 60.024 -605.092 47.64 -622.66 47.64C-640.228 47.64 -654.916 60.888 -654.916 79.32C-654.916 98.904 -640.228 112.152 -622.66 112.152C-614.02 112.152 -606.532 108.984 -599.908 102.936ZM-113.541 79.32C-113.541 97.752 -100.293 110.136 -83.301 110.136C-66.021 110.136 -52.773 97.752 -52.773 79.32C-52.773 61.752 -66.309 48.792 -83.301 48.792C-100.293 48.792 -113.541 61.752 -113.541 79.32ZM-13.317 79.32C-13.317 100.056 -20.229 117.048 -33.765 130.008C-47.301 142.968 -63.717 149.304 -83.301 149.304C-102.885 149.304 -119.301 142.968 -132.837 130.008C-146.373 117.048 -152.997 100.056 -152.997 79.32C-152.997 58.584 -146.373 41.88 -132.837 28.92C-119.301 15.96 -102.885 9.62399 -83.301 9.62399C-63.717 9.62399 -47.301 15.96 -33.765 28.92C-20.229 41.88 -13.317 58.584 -13.317 79.32ZM81.3315 47.64C64.0515 47.64 50.2275 61.464 50.2275 80.184C50.2275 99.768 64.0515 112.152 81.3315 112.152C98.6115 112.152 112.436 98.904 112.436 80.184C112.436 60.888 98.6115 47.64 81.3315 47.64ZM612.325 120.216C593.029 100.344 583.237 76.152 583.237 48.216C583.237 19.992 593.029 -3.91202 612.325 -23.784C631.909 -43.656 655.813 -53.736 683.749 -53.736C711.973 -53.736 735.877 -43.656 755.173 -23.784C774.757 -3.91202 784.549 19.992 784.549 48.216C784.549 76.152 774.757 100.344 755.173 120.216C735.589 140.088 711.685 149.88 683.749 149.88C655.813 149.88 631.909 140.088 612.325 120.216Z" fill="white"/>
</g>
<defs>
<clipPath id="clip0">
<rect width="375" height="218" fill="white"/>
</clipPath>
</defs>
</svg>
